<svg xmlns="http://www.w3.org/2000/svg" version="1.1" xmlns:xlink="http://www.w3.org/1999/xlink" xmlns:svgjs="http://svgjs.dev/svgjs" viewBox="0 0 600 600" opacity="1"><path d="M231.67536963163502 485.3403066860876C164.7905512366562 442.1465912726762 117.93191247322845 373.6911011603715 98.95285452543385 327.4869131314001C79.97379657763925 281.2827251024288 54.05756605802662 247.9057567186397 117.80102194486744 208.1151785122595C181.54447783170826 168.32460030587927 396.3350547665227 91.3612468309444 481.41358984647877 88.74344389311887C566.4921249264348 86.12564095529333 605.2355808132756 139.1361084845902 628.2722324246038 192.40836088530637C651.3088840359319 245.68061328602252 640.968577435997 342.6701508429887 619.6334995144475 408.37695829741574C598.2984215928981 474.0837657518428 564.921453209109 573.8219808804238 500.2617648953069 586.6492056118691C435.60207658150483 599.4764303433144 298.56018802661384 528.5340220994992 231.67536963163502 485.3403066860876C164.7905512366562 442.1465912726762 117.93191247322845 373.6911011603715 98.95285452543385 327.4869131314001 " fill="hsl(340, 45%, 50%)" stroke-width="0" stroke="hsl(340, 45%, 30%)" stroke-opacity="0.05"></path><defs></defs><path d="M75.39264002515756 381.6753892593787C8.507821630178725 338.4816738459673 -38.35081713324901 270.0261837336627 -57.32987508104361 223.82199570469132C-76.30893302883821 177.61780767571997 -102.22516354845084 144.2408392919309 -38.48170766161002 104.4502610855507C25.261748225230804 64.65968287917048 240.05232516004526 -12.303670595764409 325.1308602400013 -14.921473533589932C410.20939531995737 -17.539276471415455 448.9528512067982 35.47119105788141 471.9895028181263 88.74344345859757C495.02615442945444 142.01569585931372 484.6858478295195 239.00523341627988 463.35076990797006 304.7120408707068C442.0156919864206 370.4188483251339 408.6387236026315 470.1570634537146 343.97903528882944 482.9842881851599C279.3193469750274 495.81151291660524 142.27745842013638 424.8691046727902 75.39264002515756 381.6753892593787C8.507821630178725 338.4816738459673 -38.35081713324901 270.0261837336627 -57.32987508104361 223.82199570469132 " fill-opacity="1" fill="none" opacity="1" stroke-opacity="1" stroke-width="10" stroke="hsl(340, 45%, 30%)" transform="matrix(1,0,0,1,75,75)"></path></svg>