<svg xmlns="http://www.w3.org/2000/svg" version="1.1" xmlns:xlink="http://www.w3.org/1999/xlink" xmlns:svgjs="http://svgjs.dev/svgjs" viewBox="0 0 800 800"><defs><linearGradient x1="50%" y1="0%" x2="50%" y2="100%" id="uundulate-grad"><stop stop-color="oklch(57% 0.18 264.05)" stop-opacity="1" offset="45%"></stop><stop stop-color="hsl(316, 73%, 52%)" stop-opacity="1" offset="100%"></stop></linearGradient></defs><g stroke-width="2" stroke="url(#uundulate-grad)" fill="none"><path d="M662.9479918145585 172.47756615695965C711.5485994515184 292.52549203277545 604.5407262099436 632.9528567475104 495.99665403955464 703.6048770048002C387.45258186916567 774.25689726209 190.5370530336519 631.6551892677654 141.93644539669202 511.6072633919496C93.33583775973216 391.55933751613384 154.16966521175868 198.0268530581746 262.71373738214766 127.37483280088486C371.25780955253674 56.722812543595126 614.3473841775985 52.42964028114392 662.9479918145585 172.47756615695965C711.5485994515184 292.52549203277545 604.5407262099436 632.9528567475104 495.99665403955464 703.6048770048002 "></path><path d="M650.9957784637014 182.8195268727477C697.3872675717085 297.4107288451173 595.2433885683872 622.3641224364553 491.63313786028857 689.8046872275046C388.02288715219004 757.2452520185539 200.05806417283605 621.1254398421532 153.66657506482892 506.53423786978374C107.27508595682173 391.9430358974141 165.34373943375613 207.2074825511802 268.9539901418548 139.76691776013087C372.5642408499534 72.32635296908154 604.6042893556943 68.22832490037814 650.9957784637014 182.8195268727477C697.3872675717085 297.4107288451173 595.2433885683872 622.3641224364553 491.63313786028857 689.8046872275046 "></path><path d="M639.0436261480006 193.16142655337956C683.225996727055 302.29590462230294 585.9461119619871 611.7753270902438 487.269682716179 676.0044364150527C388.59325347037066 740.2335457398616 209.57913634717647 610.5956293813847 165.396765768122 501.4611513124614C121.2143951890676 392.3266732435379 176.51787469090988 216.38805100902948 275.19430393671803 152.15894168422062C373.87073318252624 87.92983235941176 594.8612555689461 84.02694848445611 639.0436261480006 193.16142655337956C683.225996727055 302.29590462230294 585.9461119619871 611.7753270902438 487.269682716179 676.0044364150527 "></path><path d="M627.0914433147217 203.50335675158948C669.0646953648234 307.1811109170667 576.6488048380088 601.1865622616106 482.90619705449103 662.204216120179C389.16358927097326 723.2218699787475 219.1001780039387 600.0658494381945 177.12692595383703 496.38809527271724C135.1536739037353 392.71034110723997 187.69197943048545 225.5686499844569 281.4345872140033 164.5509961258885C375.17719499752104 103.53334226732005 585.11819126462 99.82560258611221 627.0914433147217 203.50335675158948C669.0646953648234 307.1811109170667 576.6488048380088 601.1865622616106 482.90619705449103 662.204216120179 "></path><path d="M615.1392604814428 213.8452869497994C654.9033940025918 312.06631721183044 567.3514977140305 590.5977974329774 478.5427113928032 648.4039958253053C389.73392507157587 706.2101942176332 228.621219660701 589.5360694950041 188.857086139552 491.31503923297305C149.09295261840305 393.094008970942 198.86608417006107 234.74924895988437 287.6748704912884 176.94305056755638C376.48365681251585 119.1368521752284 575.3751269602938 115.62425668776831 615.1392604814428 213.8452869497994C654.9033940025918 312.06631721183044 567.3514977140305 590.5977974329774 478.5427113928032 648.4039958253053 "></path><path d="M603.1870776481637 224.18721714800932C640.74209264036 316.9515235065942 558.0541905900523 580.0090326043439 474.17922573111537 634.6037755304316C390.30426087217836 689.1985184565191 238.1422613174633 579.0062895518138 200.58724632526702 486.24198319322886C163.03223133307074 393.47767683464394 210.04018890963664 243.92984793531178 293.91515376857365 189.33510500922426C377.79011862751054 134.7403620831367 565.6320626559675 131.4229107894244 603.1870776481637 224.18721714800932C640.74209264036 316.9515235065942 558.0541905900523 580.0090326043439 474.17922573111537 634.6037755304316 "></path><path d="M591.2348948148849 234.52914734621925C626.5807912781283 321.83672980135793 548.756883466074 569.4202677757107 469.8157400694274 620.8035552355578C390.87459667278097 672.186842695405 247.66330297422553 568.4765096086235 212.31740651098198 481.1689271534847C176.97151004773843 393.861344698346 221.21429364921227 253.1104469107392 300.15543704585883 201.72715945089215C379.09658044250534 150.34387199104503 555.8889983516412 147.2215648910805 591.2348948148849 234.52914734621925C626.5807912781283 321.83672980135793 548.756883466074 569.4202677757107 469.8157400694274 620.8035552355578 "></path><path d="M579.2827272403949 244.8710622856401C612.4195051746858 326.72192083733273 539.4595916008849 558.8314876882883 465.45226966652876 607.0033196818949C391.4449477321725 655.1751516755016 257.1843598897769 557.9467144066441 224.04758195548607 476.0958558549514C190.91080402119525 394.24499730325897 232.38841364757695 262.2910306273776 306.3957355819331 214.1191986337709C380.4030575162892 165.94736664016426 546.1459493061042 163.02020373394754 579.2827272403949 244.8710622856401C612.4195051746858 326.72192083733273 539.4595916008849 558.8314876882883 465.45226966652876 607.0033196818949 "></path><path d="M567.3305138895379 255.21299248385003C598.258173294876 331.6071271320965 530.1622539593284 548.242722859655 461.0887534872627 593.2030993870213C392.015253015197 638.1634759143875 266.705371028961 547.4169344634538 235.7777116236229 471.02279981520724C204.85005221828482 394.6286651669609 243.5624878695744 271.471629602805 312.63598834164014 226.5112530754388C381.7094888137059 181.5508765480726 536.4028544841999 178.81885783560364 567.3305138895379 255.21299248385003C598.258173294876 331.6071271320965 530.1622539593284 548.242722859655 461.0887534872627 593.2030993870213 "></path><path d="M555.3783768326261 265.55492268205995C584.0969177090116 336.4923334268602 520.8649926117174 537.6539580310218 456.72531360194205 579.4028790921475C392.5856345921668 621.1518001532734 276.2264584620905 536.8871545202635 247.50791758570512 465.94974377546316C218.7893767093197 395.01233303066294 254.7366383855172 280.65222857823244 318.8763173952925 238.90330751710667C383.0159964050679 197.1543864559809 526.6598359562408 194.61751193725974 555.3783768326261 265.55492268205995C584.0969177090116 336.4923334268602 520.8649926117174 537.6539580310218 456.72531360194205 579.4028790921475 "></path><path d="M543.4261482229801 275.89685288026993C569.9355705704127 341.377539721624 511.56763971137195 527.0651932023885 452.361782163887 565.6026587972738C393.1559246164021 604.1401243921591 285.7474543424856 526.3573745770731 259.2380319950529 460.876687735719C232.72860964762026 395.396000894365 265.9106973487256 289.83282755365985 325.1165548962105 251.29536195877455C384.32241244369544 212.75789636388924 516.9167258755474 210.41616603891583 543.4261482229801 275.89685288026993C569.9355705704127 341.377539721624 511.56763971137195 527.0651932023885 452.361782163887 565.6026587972738 "></path><path d="M531.4739959072792 286.2387678196908C555.7742997257592 346.26273075759866 502.2703631049718 516.4764131149661 447.9983270197773 551.802423243611C393.72629093458283 587.1284333722559 295.26852651682594 515.8275793750936 270.96822269834604 455.8036164371857C246.66791887986608 395.77965349927786 277.08483260587934 299.01341127029826 331.3568686910738 263.68740114165337C385.62890477626837 228.36139101300847 507.17369208879927 226.21480488178287 531.4739959072792 286.2387678196908C555.7742997257592 346.26273075759866 502.2703631049718 516.4764131149661 447.9983270197773 551.802423243611 "></path><path d="M519.5217825564222 296.5806980179007C541.6129678459494 351.1479370523624 492.9730254634154 505.8876482863328 443.63481084051136 538.0022029487372C394.2965962176072 570.1167576111418 304.7895376560101 505.2977994319033 282.6983523664829 450.73056039744165C260.60716707695565 396.1633213629799 288.2589068278768 308.1940102457257 337.5971214507809 276.07945558332125C386.935336073685 243.96490092091682 497.4305972668949 242.01345898343897 519.5217825564222 296.5806980179007C541.6129678459494 351.1479370523624 492.9730254634154 505.8876482863328 443.63481084051136 538.0022029487372 "></path><path d="M507.5696302407214 306.92262821611064C527.4516970012959 356.03314334712616 483.67574885701526 495.2988834576996 439.27135569640154 524.2019826538635C394.86696253578793 553.1050818500275 314.31060983035053 494.768019488713 294.428543069776 445.65750435769746C274.5464763092015 396.54698922668194 299.43304208503054 317.3746092211531 343.8374352456442 288.47151002498913C388.2418284062579 259.5684108288251 487.6875634801469 257.8121130850951 507.5696302407214 306.92262821611064C527.4516970012959 356.03314334712616 483.67574885701526 495.2988834576996 439.27135569640154 524.2019826538635 "></path><path d="M495.61744740744246 317.2645889318987C513.2903956390642 360.91838015946803 474.378441733037 484.7101491466444 434.9078700347137 510.4017928765679C395.4372983363905 536.0934366064915 323.83165148711277 484.2382700631008 306.158703255491 440.5844788355314C288.4857550238692 396.93068760796206 310.60714682460616 326.5552387141587 350.0777185229294 300.86359498423514C389.54829022125267 275.1719512543116 477.9444991758206 273.61079770432934 495.61744740744246 317.2645889318987C513.2903956390642 360.91838015946803 474.378441733037 484.7101491466444 434.9078700347137 510.4017928765679 "></path><path d="M483.66526457416353 327.6065191301086C499.1290942768326 365.80358645423183 465.0811346090587 474.1213843180111 430.5443843730259 496.6015725816942C396.00763413699303 519.0817608453774 333.35269314387506 473.7084901199105 317.888863441206 435.5114227957872C302.42503373853697 397.31435547166404 321.78125156418173 335.7358376895861 356.3180018002146 313.255649425903C390.8547520362475 290.77546116221987 468.2014348714945 289.40945180598544 483.66526457416353 327.6065191301086C499.1290942768326 365.80358645423183 465.0811346090587 474.1213843180111 430.5443843730259 496.6015725816942 "></path><path d="M471.7130817408846 337.94843406952947C484.96779291460086 370.6887774902065 455.7838274850805 463.53260423058873 426.18089871133805 482.8013370280314C396.5779699375956 502.0700698254741 342.8737348006373 463.1786949179311 329.619023626921 430.438351497254C316.36431245320466 397.698008076577 332.95535630375736 344.91642140622446 362.5582850774998 325.64768860878183C392.1612138512422 306.37895581133915 458.45837056716823 305.2080906488525 471.7130817408846 337.94843406952947C484.96779291460086 370.6887774902065 455.7838274850805 463.53260423058873 426.18089871133805 482.8013370280314 "></path><path d="M459.76088364881656 348.29033375016127C470.80647629358015 375.57395326739214 446.4865051023132 452.94380888437735 421.81739779086115 469.00108621557956C397.14829047940907 485.05836354678183 352.3947611986105 452.6488844571626 341.34916855384694 425.36526493993176C330.3035759090833 398.0816454227009 344.12944578454386 354.09698986407375 368.79855309599594 338.03971253287153C393.46766040744797 321.9824352016693 448.7152910040529 321.00671423293045 459.76088364881656 348.29033375016127C470.80647629358015 375.57395326739214 446.4865051023132 452.94380888437735 421.81739779086115 469.00108621557956 "></path><path d="M447.8087160743267 358.63229446594937C456.64519019013755 380.459190079734 437.18921323712397 442.3550745733222 417.4539273879623 455.20089643828396C397.7186415388007 468.04671830324577 361.9158181141619 442.1191350315504 353.07934399835096 420.2922394177657C344.2428698825401 398.465343803981 355.30356578290855 363.27761935707935 375.0388516320702 350.43179749211754C394.77413748123183 337.5859756271558 438.9722419585158 336.80539885216467 447.8087160743267 358.63229446594937C456.64519019013755 380.459190079734 437.18921323712397 442.3550745733222 417.4539273879623 455.20089643828396 "></path><path d="M435.85653324104777 368.9742246641593C442.4838888279059 385.34439637449776 427.89190611314575 431.7663097446889 413.0904417262745 441.40067614341024C398.28897733940323 451.0350425421316 371.4368597709241 431.5893550883601 364.809504184066 415.21918337802157C358.1821485972078 398.84901166768304 366.4776705224841 372.45821833250676 381.2791349093554 362.8238519337854C396.0805992962266 353.1894855350641 429.2291776541896 352.60405295382077 435.85653324104777 368.9742246641593C442.4838888279059 385.34439637449776 427.89190611314575 431.7663097446889 413.0904417262745 441.40067614341024 "></path><path d="M423.90436566655785 379.3161548623692C428.3226027244633 390.22960266926157 418.59461424795654 421.17754491605564 408.7269713233757 427.6004558485365C398.8593283987949 434.02336678101744 380.95791668647547 421.05957514516973 376.53967962857 410.1461273382774C372.12144257066456 399.23267953138503 377.6517905208488 381.6388173079342 387.5194334454296 375.2159063754533C397.38707637001045 368.7929954429724 419.48612860865245 368.40270705547687 423.90436566655785 379.3161548623692C428.3226027244633 390.22960266926157 418.59461424795654 421.17754491605564 408.7269713233757 427.6004558485365 "></path><path d="M411.9521828332789 389.6580698017901C414.16130136223165 395.11479370523625 409.29730712397827 410.5887648286333 404.36348566168783 413.8002202948737C399.42966419939745 417.0116757611142 390.4789583432377 410.5297799431903 388.26983981428504 405.0730560397442C386.0607212853323 399.616332136298 388.8258952604244 390.8194010245726 393.7597167227148 387.6079455583321C398.6935381850052 384.39649009209165 409.7430643043262 384.2013458983439 411.9521828332789 389.6580698017901C414.16130136223165 395.11479370523625 409.29730712397827 410.5887648286333 404.36348566168783 413.8002202948737 "></path></g></svg>