<svg xmlns="http://www.w3.org/2000/svg" version="1.1" xmlns:xlink="http://www.w3.org/1999/xlink" xmlns:svgjs="http://svgjs.dev/svgjs" viewBox="0 0 800 800"><defs><linearGradient x1="50%" y1="0%" x2="50%" y2="100%" id="uundulate-grad"><stop stop-color="hsl(37, 99%, 67%)" stop-opacity="1" offset="45%"></stop><stop stop-color="hsl(316, 73%, 52%)" stop-opacity="1" offset="100%"></stop></linearGradient></defs><g stroke-width="3" stroke="url(#uundulate-grad)" fill="none"><path d="M749.031591674524 397.65994719946525C761.7410324132798 479.77170441534463 732.7413877064923 583.2267205774175 679.2035401786854 646.7685921194228C625.6656926508786 710.3104636614282 606.535467853901 685.8035770136335 492.04992354105093 702.6609306010915C377.5643792282008 719.5182841885496 217.6166800540991 802.8969640619121 129.67292747700446 727.6838893392219C41.72917489990988 652.4708146165317 29.929617951814635 484.3018656824786 69.9199111709978 341.6381719321789C109.91020439018098 198.9744781818792 207.40168629123775 61.44107901465304 321.62633492908344 42.898159337783C435.85098356692924 24.355239660912957 529.155462810691 178.72345167868565 618.1982246326578 252.63215748320283C707.2409864546245 326.54086328771996 736.3221509357681 315.548189983586 749.031591674524 397.65994719946525C761.7410324132798 479.77170441534463 732.7413877064923 583.2267205774175 679.2035401786854 646.7685921194228 "></path><path d="M738.1243525273466 397.7330709884591C750.4366232430164 477.2788357913421 722.3432174333158 577.5008826983503 670.4784276407529 639.057070754668C618.61363784819 700.6132588109857 600.0812325761179 676.8722123709346 489.1733615230444 693.2027736587845C378.2654904699709 709.5333349466346 223.31615689505986 790.3064310739542 138.12064658599945 717.4437649363482C52.92513627693904 644.5810987987421 41.49431548347184 481.6674295188782 80.23491203955552 343.46197619827535C118.97550859563921 205.25652287767252 213.42038168728794 72.02104243442216 324.075510055201 54.05758899745433C434.7306384231141 36.09413556048651 525.1193526905082 185.63834095270374 611.3795282055386 257.23739970082977C697.6397037205688 328.8364584489558 725.8120818116766 318.18730618557595 738.1243525273466 397.7330709884591C750.4366232430164 477.2788357913421 722.3432174333158 577.5008826983503 670.4784276407529 639.057070754668 "></path><path d="M727.217113380169 397.80625581260904C739.1322140727526 474.7860282024958 711.9450471601393 571.7751058544393 661.7533151028204 631.3456104250693C611.5615830455014 690.9161149956993 593.6269972983349 667.9409087633918 486.29679950503794 683.7446777516336C378.9666017117411 699.5484467398757 229.01563373602062 777.715959121153 146.56836569499444 707.2037015686308C64.1210976539682 636.6914440161088 53.05901301512898 479.033054390434 90.54991290811319 345.28584149952803C128.0408128010974 211.53862860862205 219.43907708333813 82.60106688934758 326.52468518131855 65.21707969228191C433.61029327929896 47.83309249521625 521.0832425703255 192.55329126187814 604.5608317784194 261.84270295361307C688.0384209865132 331.1321146453479 715.3020126875853 320.82648342272216 727.217113380169 397.80625581260904C739.1322140727526 474.7860282024958 711.9450471601393 571.7751058544393 661.7533151028204 631.3456104250693 "></path><path d="M716.3099352681477 397.87937960160275C727.8278659376454 472.2931595784935 701.546937922119 566.049267975372 653.028263600044 623.6340890603144C604.509589277969 681.2189101452568 587.1728230557082 659.0095441206928 483.42029852218775 674.2865208093267C379.66777398866736 689.5634974979606 234.71517161213762 765.1254261331951 155.01614583914568 696.9635771657572C75.31712006615368 628.8017281983192 64.62377158194238 476.3986182268336 100.86497481182715 347.10964576562446C137.10617804171187 217.82067330441544 225.45783351454452 93.1810303091167 328.97392134259223 76.37650935195325C432.49000917063995 59.5719883947898 517.047193485299 199.4681805358963 597.7421963864564 266.44794517124C678.4371992876138 333.4277098065836 704.7920045986501 323.46559962471224 716.3099352681477 397.87937960160275C727.8278659376454 472.2931595784935 701.546937922119 566.049267975372 653.028263600044 623.6340890603144 "></path><path d="M705.4026350858139 397.95247287301845C716.5233957322254 469.8002604369128 691.1487066137863 560.3233995787266 644.3030900269553 615.9225371779813C597.4574734401242 671.521674777236 580.7185267427689 650.0781489604155 480.54367546902495 664.8283333494414C380.36882419528115 679.5785177384672 240.4145874179422 752.5348626276593 163.46380391298442 686.7234222453054C86.51302040802659 620.9119818629515 76.18840807844327 473.76415154565507 111.17991464522856 348.93341951414277C146.1714212120138 224.10268748263059 231.47646787543852 103.76096321130774 331.42303543355354 87.53590849404645C431.36960299166844 71.31085377678517 513.01102232996 206.38303929233626 590.923438924181 271.0531568712888C668.8358555184019 335.7232744502413 694.2818744394025 326.1046853091241 705.4026350858139 397.95247287301845C716.5233957322254 469.8002604369128 691.1487066137863 560.3233995787266 644.3030900269553 615.9225371779813 "></path><path d="M694.4954569737927 398.0255966620123C705.2190475971181 467.3073918129103 680.750597375766 554.5975616996593 635.578038524179 608.2110158132265C590.4054796725919 661.8244699267934 574.2643525001421 641.1467843177167 477.66717448617476 655.3701764071344C381.06999647220755 669.5935684965522 246.1141252940592 739.9443296397017 171.9115840571356 676.4832978424317C97.709042820212 613.0222660451619 87.75316664525673 471.12971538205466 121.49497654894247 350.7572237802393C155.23678645262828 230.38473217842397 237.4952243066449 114.34092663107685 333.8722715948272 98.69533815371778C430.24931888300966 83.04974967635872 508.9749732449336 213.29792856635441 584.104803532218 275.65839908891576C659.2346338195025 338.01886961147716 683.7718663504673 328.74380151111404 694.4954569737927 398.0255966620123C705.2190475971181 467.3073918129103 680.750597375766 554.5975616996593 635.578038524179 608.2110158132265 "></path><path d="M683.588187309037 398.09868993342775C693.9146079092762 464.81449267132973 670.3523965850114 548.871693303014 626.8528954686683 600.4994639308934C583.3533943523253 652.1272345587728 567.8100867047808 632.2153891574395 474.7905819505902 645.9119889472493C381.77107719639946 659.6085887370589 251.81357161744182 727.3537661341659 180.35927264855246 666.2431429219799C108.9049736796631 605.1325197097942 99.31783365933575 468.4952487008761 131.80994689992207 352.5809975287576C164.3020601405084 236.66674635663912 243.51388918511702 124.9208595332679 336.32141620336665 109.85473729581099C429.1289432216163 94.78861505835408 504.9388326071727 220.21278732279438 577.2860765875207 280.26361078896457C649.6333205678687 340.31443425513476 673.2617667087978 331.3828871955259 683.588187309037 398.09868993342775C693.9146079092762 464.81449267132973 670.3523965850114 548.871693303014 626.8528954686683 600.4994639308934 "></path><path d="M672.6809481618595 398.1718747575778C682.6101987390126 462.32168508248355 659.9542263118349 543.1459164591031 618.1277829307357 592.7880036012948C576.3013395496366 642.4300907434865 561.3558514269979 623.2840855498969 471.91401993258376 636.4538930400985C382.4721884381695 649.6237005303001 257.51304845840264 714.7632941813645 188.80699175754745 656.0030795542626C120.10093505669226 597.242864927161 110.88253119099289 465.86087357243196 142.12494776847973 354.4048628300104C173.36736434596656 242.94885208758876 249.53258458116716 135.50088398819327 338.7705913294842 121.01422799063857C428.00859807780114 106.52757199308388 500.90272248699 227.12773763196878 570.4673801604015 284.8689140417478C640.0320378338131 342.61009045152684 662.7516975847064 334.0220644326721 672.6809481618595 398.1718747575778C682.6101987390126 462.32168508248355 659.9542263118349 543.1459164591031 618.1277829307357 592.7880036012948 "></path><path d="M661.7737395322602 398.24499854657165C671.3058200863271 459.828816458481 649.5560865562364 537.4200785800357 609.4027009103813 585.0764822365397C569.2493152645261 632.7328858930438 554.9016466667929 614.3527209071977 469.03748843215544 626.9957360977913C383.17333019751777 639.6387512883848 263.2125558169415 702.1727611934067 197.25474138412056 645.762955151389C131.29692695129955 589.3531491093713 122.44725924022816 463.22643740883154 152.43997915461557 356.22866709610673C182.43269906900292 249.23089678338204 255.55131049479547 146.08084740796244 341.21979697317977 132.1736576503099C426.8882834515641 118.26646789265737 496.8666428843853 234.04262690598688 563.6487142508604 289.47415625937475C630.4307856173355 344.9056856127627 652.2416589781932 336.66118063466206 661.7737395322602 398.24499854657165C671.3058200863271 459.828816458481 649.5560865562364 537.4200785800357 609.4027009103813 585.0764822365397 "></path><path d="M650.8664698675045 398.31809181798724C660.0013803984854 457.3359173169006 639.1578857654818 531.6942101833904 600.6775578548707 577.3649303542068C562.1972299442593 623.0356505250231 548.4473808714317 605.4213257469207 466.16089589657076 617.5375486379062C383.8744109217098 629.6537715288916 268.91200214032415 689.5821976878709 205.70242997553737 635.5228002309373C142.49285781075065 581.4634027740037 134.01192625430724 460.591970727653 162.7549495055951 358.05244084462515C191.49797275688303 255.51291096159724 261.56997537326754 156.66078031015343 343.6689415817192 143.3330567924031C425.76790779017074 130.0053332746528 492.8305022466245 240.9574856624269 556.8299873061633 294.0793679594236C620.8294723657018 347.2012502564203 641.7315593365237 339.300266319074 650.8664698675045 398.31809181798724C660.0013803984854 457.3359173169006 639.1578857654818 531.6942101833904 600.6775578548707 577.3649303542068 "></path><path d="M639.959230720327 398.3912308657701C648.6969712282219 454.8430639516871 628.7597154923053 525.9683875631122 591.9524453169381 569.653424248241C555.1451751415709 613.3384609333696 541.9931455936487 596.4899763630108 463.2843338785643 608.0794069543881C384.57552216347983 619.6688375457657 274.6114789812849 676.9916799587022 214.15014908453236 625.2826910868528C153.6888191877798 573.5737022150032 145.5766237859644 457.95754982284166 173.06995037415282 359.87626036951065C200.5632769623412 261.79497091617964 267.58867076931773 167.24075898871166 346.11811670783663 154.4925017108635C424.6475626463556 141.74424443301535 488.79439212644183 247.87239019523406 550.011290879044 298.6846254358396C611.228189631646 349.4968606764452 631.2214902124324 341.93939777985304 639.959230720327 398.3912308657701C648.6969712282219 454.8430639516871 628.7597154923053 525.9683875631122 591.9524453169381 569.653424248241 "></path><path d="M629.0519915731495 398.46435465476384C637.3925620579581 452.35019532768456 618.3615452191289 520.2425496840449 583.2273327790056 561.941902883486C548.0931203388823 603.6412560829269 535.5389103158657 587.5586117203118 460.4077718605579 598.6212500120811C385.27663340525 609.6838883038504 280.31095582224566 664.4011469707445 222.59786819352735 615.0425666839791C164.88478056480903 565.6839863972136 157.14132131762153 455.32311365924124 183.38495124271049 361.7000646356071C209.62858116779944 268.07701561197297 273.6073661653679 177.82072240848078 348.5672918339542 165.65193137053484C423.52721750254045 153.4831403325889 484.75828200625915 254.7872794692522 543.1925944519248 303.28986765346656C601.6269068975905 351.792455837681 620.711421088341 344.5785139818431 629.0519915731495 398.46435465476384C637.3925620579581 452.35019532768456 618.3615452191289 520.2425496840449 583.2273327790056 561.941902883486 "></path><path d="M618.144752425972 398.53747844375755C626.0881528876946 449.85732670368213 607.9633749459523 514.5167118049777 574.502220241073 554.2303815187311C541.0410655361936 593.9440512324845 529.0846750380827 578.6272470776128 457.53120984255133 589.163093069774C385.97774464702 599.6989390619353 286.0104326632065 651.8106139827869 231.04558730252234 604.8024422811054C176.0807419418382 557.794270579424 168.70601884927868 452.68867749564083 193.69995211126815 363.5238689017035C218.69388537325767 274.3590603077663 279.6260615614181 188.40068582824995 351.01646696007174 176.81136103020617C422.4068723587253 165.2220362321624 480.72217188607647 261.7021687432703 536.3738980248056 307.89510987109355C592.0256241635348 354.08805099891674 610.2013519642495 347.2176301838331 618.144752425972 398.53747844375755C626.0881528876946 449.85732670368213 607.9633749459523 514.5167118049777 574.502220241073 554.2303815187311 "></path><path d="M607.2375437963726 398.6106022327514C614.783774235009 447.3644580796797 597.5652351903539 508.79087392591055 565.7771382207186 546.5188601539762C533.9890412510831 584.2468463820419 522.6304702778777 569.6958824349138 454.654678342123 579.7049361274669C386.6788864063683 589.7139898200202 291.70994002174535 639.2200809948291 239.49333692909545 594.5623178782319C187.2767338364455 549.9045547616345 180.27074689851395 450.0542413320404 204.014983497404 365.34767316780005C227.75922009629397 280.64110500355963 285.6447874750464 198.98064924801906 353.4656726037673 187.9707906898775C421.2865577324883 176.96093213173594 476.6860922834718 268.61705801728846 529.5552321152645 312.50035208872055C582.4243719470574 356.3836461601526 599.6913133577364 349.856746385823 607.2375437963726 398.6106022327514C614.783774235009 447.3644580796797 597.5652351903539 508.79087392591055 565.7771382207186 546.5188601539762 "></path><path d="M596.3303046491951 398.6837260217451C603.4793650647453 444.87158945567717 587.1670649171774 503.06503604684326 557.052025682786 538.8073387892213C526.9369864483946 574.5496415315993 516.1762350000947 560.7645177922147 451.7781163241166 570.24677918516C387.3799976481383 579.729040578105 297.4094168627061 626.6295480068715 247.94105603809038 584.3221934753582C198.4726952134747 542.014838943845 191.83544443017115 447.4198051684401 214.32998436596165 367.1714774338965C236.8245243017522 286.92314969935296 291.6634828710966 209.56061266778823 355.91484772988485 199.13022034954884C420.16621258867303 188.69982803130944 472.649982163289 275.53194729130655 522.7365356881453 317.1055943063475C572.8230892130017 358.6792413213884 589.181244233645 352.495862587813 596.3303046491951 398.6837260217451C603.4793650647453 444.87158945567717 587.1670649171774 503.06503604684326 557.052025682786 538.8073387892213 "></path><path d="M585.4230349844395 398.7568498107389C592.1749253769036 442.37872083167474 576.7688641264227 497.339198167776 548.3268826272753 531.0958174244663C519.8849011281279 564.8524366811566 509.72196920473357 551.8331531495157 448.9015237885319 560.7886222428529C388.08107837233024 569.74409133619 303.1088631860888 614.0390150189137 256.38874462950724 574.0820690724845C209.66862607292575 534.1251231260553 203.40011144425017 444.7853690048397 224.64495471694124 368.995281699993C245.88979798963226 293.20519439514624 297.6821477495687 220.14057608755735 358.3639923384243 210.28965000922017C419.04583692727977 200.438723930883 468.6138415255282 282.4468365653247 515.9178087434481 321.7108365239745C563.2217759613679 360.9748364826242 578.6711445919755 355.134978789803 585.4230349844395 398.7568498107389C592.1749253769036 442.37872083167474 576.7688641264227 497.339198167776 548.3268826272753 531.0958174244663 "></path><path d="M574.515795837262 398.8299735997326C580.8705162066399 439.8858522076723 566.3706938532462 491.6133602887087 539.6017700893427 523.3842960597115C512.8328463254393 555.1552318307141 503.26773392695054 542.9017885068167 446.02496177052546 551.3304653005457C388.7821896141004 559.7591420942748 308.80834002704955 601.448482030956 264.83646373850223 563.8419446696109C220.8645874499549 526.2354073082658 214.96480897590732 442.1509328412393 234.9599555854989 370.81908596608946C254.9551021950905 299.4872390909396 303.7008431456189 230.72053950732652 360.8131674645417 221.4490796688915C417.9254917834646 212.17761983045648 464.5777314053455 289.36172583934285 509.09911231632896 326.3160787416014C553.6204932273122 363.27043164386 568.1610754678841 357.774094991793 574.515795837262 398.8299735997326C580.8705162066399 439.8858522076723 566.3706938532462 491.6133602887087 539.6017700893427 523.3842960597115 "></path><path d="M563.6085566900845 398.90309738872634C569.5661070363763 437.3929835836698 555.9725235800697 485.8875224096415 530.8766575514102 515.6727746949565C505.78079152275063 545.4580269802716 496.8134986491675 533.9704238641177 443.148399752519 541.8723083582387C389.48330085587054 549.7741928523596 314.5078168680103 588.8579490429984 273.2841828474972 553.6018202667373C232.06054882698413 518.3456914904763 226.52950650756446 439.5164966776389 245.27495645405662 372.6428902321859C264.0204064005487 305.7692837867329 309.71953854166907 241.30050292709564 363.2623425906593 232.60850932856283C416.8051466396495 223.91651573003003 460.5416212851628 296.27661511336095 502.28041588920973 330.9213209592284C544.0192104932567 365.5660268050958 557.6510063437927 360.41321119378296 563.6085566900845 398.90309738872634C569.5661070363763 437.3929835836698 555.9725235800697 485.8875224096415 530.8766575514102 515.6727746949565 "></path><path d="M552.7013480604851 398.97622117772016C558.2617283836908 434.90011495966735 545.5743838244713 480.16168453057423 522.1515755310558 507.96125333020154C498.7287672376402 535.760822129829 490.3592938889626 525.0390592214187 440.2718682520906 532.4141514159317C390.1844426152187 539.7892436104446 320.2073242265492 576.2674160550406 281.73193247407033 543.3616958638636C243.25654072159142 510.4559756726867 238.0942345567998 436.88206051403847 255.5899878401924 374.4666944982823C273.085741123585 312.05132848252623 315.7382644552974 251.8804663468648 365.7115482343549 243.76793898823416C415.68483201341235 235.65541162960352 456.50554168255815 303.19150438737904 495.46174997966864 335.52656317685535C534.417958276779 367.8616219663316 547.1409677372794 363.052327395773 552.7013480604851 398.97622117772016C558.2617283836908 434.90011495966735 545.5743838244713 480.16168453057423 522.1515755310558 507.96125333020154 "></path><path d="M541.7941089133076 399.0493449667139C546.9573192134271 432.4072463356649 535.1762135512947 474.43584665150706 513.4264629931232 500.2497319654467C491.6767124349517 526.0636172793863 483.90505861117947 516.1076945787197 437.39530623408416 522.9559944736246C390.8855538569888 529.8042943685294 325.90680106750995 563.6768830670829 290.17965158306527 533.12157146099C254.45250209862058 502.5662598548971 249.65893208845694 434.24762435043806 265.90498870875007 376.2904987643788C282.15104532904326 318.33337317831956 321.7569598513476 262.4604297666339 368.1607233604724 254.9273686479055C414.5644868695972 247.39430752917707 452.46943156237535 310.1063936613972 488.6430535525494 340.1318053944823C524.8166755427235 370.1572171275674 536.630898613188 365.69144359776294 541.7941089133076 399.0493449667139C546.9573192134271 432.4072463356649 535.1762135512947 474.43584665150706 513.4264629931232 500.2497319654467 "></path><path d="M530.886839248552 399.1224687557077C535.6528795255854 429.9143777116624 524.7780127605402 468.7100087724398 504.70131993761254 492.53821060069174C484.6246271146849 516.3664124289437 477.4507928158183 507.1763299360207 434.5187136984996 513.4978375313176C391.58663458118076 519.8193451266143 331.60624739089263 551.0863500791252 298.62734017448213 522.8814470581164C265.6484329580717 494.67654403710753 261.22359910253596 431.61318818683765 276.21995905972966 378.11430303047524C291.21631901692336 324.6154178741129 327.77562472981964 273.0403931864031 370.60986796901176 266.0867983075768C413.44411120820394 259.13320342875056 448.43329092461454 317.02128293541534 481.8243266078521 344.7370476121092C515.2153622910896 372.4528122888032 526.1207989715185 368.3305597997529 530.886839248552 399.1224687557077C535.6528795255854 429.9143777116624 524.7780127605402 468.7100087724398 504.70131993761254 492.53821060069174 "></path><path d="M519.9796001013744 399.1956230622796C524.3484703553219 427.4215396052381 514.3798424873636 462.9842014109506 495.97620739968 484.826719753515C477.5725723119964 506.6692380960793 470.9965575380353 498.2449958108999 431.6421516804931 504.0397111065886C392.28774582295085 509.83442640227736 337.3057242318534 538.4958476087456 307.0750592834771 512.6413531728209C276.84439433510084 486.7868587368962 272.7882966341931 428.97878254081536 286.5349599282873 379.93813781414985C300.28162322238154 330.89749308748435 333.79432012586983 283.62038712375033 373.05904309512925 277.2462584848263C412.32376606438874 270.87212984590224 444.39718080443185 323.93620272701156 475.00563018073296 349.34232034731434C505.61407955703396 374.7484379676171 515.6107298474271 370.96970651932105 519.9796001013744 399.1956230622796C524.3484703553219 427.4215396052381 514.3798424873636 462.9842014109506 495.97620739968 484.826719753515 "></path><path d="M509.07236095419694 399.2687468512733C513.0440611850582 424.9286709812356 503.98167221418703 457.25836353188333 487.25109486174745 477.11519838876006C470.52051750930775 496.9720332456368 464.54232226025226 489.3136311682009 428.7655896624866 494.58155416428156C392.98885706472095 499.8494771603622 343.00520107281415 525.905314620788 315.5227783924721 502.40122876994724C288.04035571213 478.8971429191065 284.3529941658503 426.34434637721495 296.84996079684504 381.7619420802463C309.3469274278398 337.1795377832777 339.81301552192 294.2003505435195 375.5082182212468 288.4056881444976C411.2034209205736 282.61102574547573 440.36107068424917 330.8510920010297 468.18693375361374 353.94756256494134C496.0127968229783 377.0440331288529 505.10066072333575 373.60882272131107 509.07236095419694 399.2687468512733C513.0440611850582 424.9286709812356 503.98167221418703 457.25836353188333 487.25109486174745 477.11519838876006 "></path><path d="M498.16515232459756 399.341855381478C501.7396825323726 422.43578709844405 493.5835324585887 451.5325103940271 478.526012841393 469.40366176521616C463.4684932241973 487.2748131364051 458.08811750004736 480.38225126671284 425.8890581620583 485.12338196318547C393.68999882406916 489.864512659658 348.7047084313531 513.3147663740413 323.9705280190452 492.1610891082846C299.23634760673735 471.007411842528 295.9177222150856 423.70989495482553 307.1649921829808 383.5857310875537C318.4122621508761 343.46156722028195 345.83174143554834 304.78029870449956 377.9574238649424 299.5651025453799C410.0831062943365 294.3499063862602 436.3249910816445 337.76596601625874 461.36826784407265 358.5527895237792C486.4115446065009 379.3396130312997 494.5906221168225 376.247923664512 498.16515232459756 399.341855381478C501.7396825323726 422.43578709844405 493.5835324585887 451.5325103940271 478.526012841393 469.40366176521616 "></path><path d="M487.2579284362091 399.4150096880499C490.43528862089806 419.94294899201975 483.1853774442012 445.80670303253794 469.8009155622495 461.6921709180393C456.41645368029776 477.5776388035406 451.6338974810534 471.45091714159196 423.01251140284086 475.66525553845645C394.3911253246283 479.87959393532105 354.4042005311029 500.7242639036616 332.41826238682927 481.92099522298906C310.4323242425556 463.1177265423165 307.4824350055318 421.07548930880324 317.4800083103276 385.4095658712283C327.47758161512337 349.7436424336534 351.85045209038753 315.36029264184685 380.406614249849 310.72456272262934C408.96277640931044 306.08883280341183 432.2888962202509 344.680885807855 454.5495866757426 363.1580622589843C476.8102771312342 381.6352387101136 484.08056825152016 378.88707038408006 487.2579284362091 399.4150096880499C490.43528862089806 419.94294899201975 483.1853774442012 445.80670303253794 469.8009155622495 461.6921709180393 "></path><path d="M476.35067403024254 399.48810295946555C479.1308641918454 417.45004985043914 472.78719191223564 440.0808346358926 461.0757877655279 453.98061903570624C449.3643836188201 467.88040343551995 445.1796469444813 462.5195219813148 420.1359341260453 466.2070680785713C395.09222130760935 469.89461417582777 360.1036621132746 488.1337003981257 340.86596623703514 471.68084030253726C321.62827036079574 455.2279802069488 319.04711727839987 418.4410226276247 327.7949939200962 387.23333961974663C336.54287056179254 356.0256566118686 357.86913222764866 325.94022554403784 382.8557741171774 321.88396186472255C407.8424160067062 317.82769818540726 428.2527708412791 351.595744564295 447.7308749898343 367.76327395903314C467.2089791383895 383.93080335377124 473.5704838686397 381.52615606849196 476.35067403024254 399.48810295946555C479.1308641918454 417.45004985043914 472.78719191223564 440.0808346358926 461.0757877655279 453.98061903570624 "></path><path d="M465.44343488306504 399.5612420072484C467.82645502158175 414.9571964852257 462.38902163905914 434.3550120156144 452.35067522759533 446.2691129297404C442.3123288161315 458.1832138438664 438.7254116666982 453.5881725974049 417.25937210803886 456.74892639505333C395.79333254937944 459.90968019270167 365.80313895423535 475.5431826689571 349.3136853460301 461.4407311584527C332.8242317378249 447.3382796479483 330.61181481005707 415.80660172281335 338.10999478865386 389.0571591446322C345.6081747672507 362.30771656645095 363.88782762369885 336.5202042225961 385.30494924329497 333.04340678318295C406.72207086289103 329.5666093437698 424.21666072109633 358.5106490971022 440.9121785627151 372.36853143544914C457.60769640433386 386.22641377379614 463.0604147445483 384.165287529271 465.44343488306504 399.5612420072484C467.82645502158175 414.9571964852257 462.38902163905914 434.3550120156144 452.35067522759533 446.2691129297404 "></path><path d="M454.53619573588753 399.6343810550312C456.5220458513182 412.46434312001236 451.9908513658826 428.6291893953362 443.6255626896628 438.55760682377456C435.26027401344294 448.4860242522129 432.2711763889152 444.656823213495 414.38281009003236 447.2907847115353C396.49444379114954 449.92474620957563 371.50261579519616 462.9526649397885 357.7614044550251 451.20062201436815C344.02019311485407 439.4485790889478 342.1765123417142 413.172180818002 348.4249956572116 390.8809786695177C354.67347897270895 368.58977652103334 369.90652301974905 347.10018290115426 387.75412436941247 344.20285170164334C405.60172571907583 341.3055205021324 420.18055060091365 365.42555362990936 434.09348213559593 376.9737889118652C448.0064136702782 388.522024193821 452.55034562045694 386.80441899005007 454.53619573588753 399.6343810550312C456.5220458513182 412.46434312001236 451.9908513658826 428.6291893953362 443.6255626896628 438.55760682377456 "></path><path d="M443.62895658871 399.7075048440249C445.2176366810545 409.9714744960099 441.5926810927061 422.90335151626897 434.9004501517302 430.84608545901966C428.20821921075435 438.7888194017703 425.81694111113217 435.725458570796 411.50624807202587 437.8326277692282C397.19555503291963 439.9397969676605 377.2020926361569 450.3621319518308 366.2091235640201 440.96049761149453C355.2161544918833 431.55886327115826 353.74120987337136 410.5377446544016 358.73999652576924 392.70478293561416C363.7387831781672 374.8718212168267 375.92521841579924 357.6801463209234 390.20329949552996 355.3622813613147C404.4813805752607 353.0444164017059 416.1444404807309 372.3404429039275 427.27478570847677 381.57903112949214C438.4051309362226 390.81761935505676 442.04027649636555 389.44353519204003 443.62895658871 399.7075048440249C445.2176366810545 409.9714744960099 441.5926810927061 422.90335151626897 434.9004501517302 430.84608545901966 "></path><path d="M432.7217174415325 399.7806286330187C433.9132275107909 407.4786058720074 431.19451081952957 417.17751363720174 426.17533761379764 423.13456409426476C421.15616440806576 429.0916145513277 419.36270583334914 426.79409392809697 408.62968605401943 428.3744708269212C397.8966662746897 429.95484772574537 382.9015694771177 437.7715989638731 374.6568426730151 430.7203732086209C366.41211586891245 423.6691474533687 365.3059074050285 407.90330849080124 369.05499739432696 394.5285872017106C372.80408738362536 381.15386591262 381.9439138118494 368.26010974069254 392.65247462164746 366.521711020986C403.36103543144554 364.78331230127947 412.10833036054817 379.2553321779456 420.45608928135755 386.18427334711913C428.80384820216693 393.1132145162926 431.53020737227416 392.08265139403005 432.7217174415325 399.7806286330187C433.9132275107909 407.4786058720074 431.19451081952957 417.17751363720174 426.17533761379764 423.13456409426476 "></path><path d="M421.814478294355 399.85375242201246C422.60881834052725 404.9857372480049 420.796340546353 411.4516757581345 417.4502250758651 415.4230427295098C414.1041096053772 419.39440970088515 412.90847055556605 417.862729285398 405.75312403601293 418.9163138846141C398.5977775164598 419.96989848383026 388.6010463180785 425.18106597591543 383.10456178201 420.48024880574724C377.6080772459416 415.77943163557916 376.8706049366857 405.2688723272008 379.3699982628846 396.3523914678071C381.8693915890836 387.43591060841334 387.9626092078996 378.8400731604617 395.101649747765 377.68114068065734C402.24069028763034 376.52220820085296 408.0722202403655 386.17022145196376 413.6373928542384 390.78951556474607C419.2025654681113 395.4088096775284 421.0201382481828 394.72176759602 421.814478294355 399.85375242201246C422.60881834052725 404.9857372480049 420.796340546353 411.4516757581345 417.4502250758651 415.4230427295098 "></path><path d="M410.9072391471775 399.92687621100623C411.3044091702636 402.4928686240025 410.3981702731765 405.7258378790672 408.72511253793255 407.7115213647549C407.0520548026886 409.6972048504426 406.454235277783 408.931364642699 402.8765620180065 409.4581569423071C399.2988887582299 409.9849492419151 394.30052315903924 412.5905329879577 391.552280891005 410.2401244028736C388.80403862297084 407.8897158177896 388.43530246834285 402.6344361636004 389.68499913144234 398.1761957339035C390.93469579454177 393.71795530420667 393.9813046039498 389.4200365802308 397.5508248738825 388.84057034032867C401.12034514381514 388.2611041004265 404.03611012018274 393.08511072598185 406.81869642711916 395.39475778237306C409.60128273405564 397.7044048387642 410.5100691240914 397.36088379801004 410.9072391471775 399.92687621100623C411.3044091702636 402.4928686240025 410.3981702731765 405.7258378790672 408.72511253793255 407.7115213647549 "></path></g></svg>