<svg xmlns="http://www.w3.org/2000/svg" version="1.1" xmlns:xlink="http://www.w3.org/1999/xlink" xmlns:svgjs="http://svgjs.dev/svgjs" viewBox="0 0 800 800"><defs><linearGradient x1="50%" y1="0%" x2="50%" y2="100%" id="uundulate-grad"><stop stop-color="hsl(305, 77%, 50%)" stop-opacity="1" offset="45%"></stop><stop stop-color="hsl(305, 77%, 80%)" stop-opacity="1" offset="100%"></stop></linearGradient></defs><g stroke-width="2" stroke="url(#uundulate-grad)" fill="none"><path d="M603.3324654348007 118.63476394388499C666.4084954914108 274.165978053755 711.5234166386279 696.989656189794 634.0141132954268 777.5910042948403C556.5048099522257 858.1923523998864 335.6400352248286 618.1296399391957 231.28780938743552 505.5212348481059C126.9355835500424 392.9128297570161 112.29814601838473 335.9206719994106 133.12342927593988 237.07065985761005C153.9487125334951 138.22064771580966 233.28895315727044 55.71532154948977 331.2491690237 31.04117656746388C429.2093848901295 6.367031585437985 540.2564353781908 -36.89645016598507 603.3324654348007 118.63476394388499C666.4084954914108 274.165978053755 711.5234166386279 696.989656189794 634.0141132954268 777.5910042948403 "></path><path d="M594.0900820294723 131.42412198594207C654.2990198107819 279.88573545445433 697.3632627240347 683.4901554934008 623.3771095327974 760.4278059573085C549.39095634156 837.3654564212161 338.5654895563173 608.2146854360115 238.95654671153295 500.7248442126984C139.34760386674856 393.2350029893854 125.3755044047117 338.83339785712565 145.25418387783253 244.47656808540694C165.13286335095341 150.11973831368834 240.8667294009208 71.36465424583758 334.3742081825126 47.81206130844919C427.88168696410435 24.259468371060848 533.8811442481629 -17.03749148257026 594.0900820294723 131.42412198594207C654.2990198107819 279.88573545445433 697.3632627240347 683.4901554934008 623.3771095327974 760.4278059573085 "></path><path d="M584.8477138829332 144.2134189928429C642.1895593889423 285.6054318199974 683.2031240682306 669.9905937618512 612.740121028957 743.2645465846203C542.2771179896832 816.5384994073897 341.49095914659495 598.2996698976709 246.6252992944194 495.9283925421346C151.75963944224378 393.55711518659837 138.45287804982775 341.7460626796843 157.38495373851424 251.88241527804757C176.3170294272008 162.01876787641078 248.44452090336017 87.01392590702909 337.4992626001143 64.58288501427825C426.55400429686847 42.15184412152746 527.5058683769241 2.821406165688302 584.8477138829332 144.2134189928429C642.1895593889423 285.6054318199974 683.2031240682306 669.9905937618512 612.740121028957 743.2645465846203 "></path><path d="M575.6053457363939 157.00277703489996C630.0800989671026 291.32518922069676 669.0429854124266 656.4910930654579 602.1031325251165 726.1013482470885C535.1632796378065 795.7116034287194 344.4164287368726 588.3847153944864 254.29405187730583 491.13200190672706C164.171675017739 393.8792884189677 151.5302516949438 344.65878853739923 169.51572359919595 259.28832350584435C187.50119550344817 173.91785847428946 256.0223124057996 102.66325860337685 340.62431701771607 81.35376975526356C425.22632162963237 60.04428090715027 521.1305925056853 22.680364849103114 575.6053457363939 157.00277703489996C630.0800989671026 291.32518922069676 669.0429854124266 656.4910930654579 602.1031325251165 726.1013482470885 "></path><path d="M566.3629165546985 169.7920740418008C617.9705775101066 297.04488558623996 654.8827857214661 642.9915313339084 591.4660829861198 708.9380888744007C528.0493802507735 774.8846464148928 347.341837291994 578.469699856146 261.962743425036 486.3355502361634C176.58364955807804 394.20140061618076 164.60756430490358 347.571453359958 181.6464324247214 266.694170698485C198.6853005445393 185.8168880370119 263.60004287308277 118.31253026456835 343.74931040016145 98.12459346109262C423.8985779272401 77.93665665761688 514.7552555992902 42.53926249736162 566.3629165546985 169.7920740418008C617.9705775101066 297.04488558623996 654.8827857214661 642.9915313339084 591.4660829861198 708.9380888744007 "></path><path d="M557.1205331493702 182.5813710487016C605.8611018294779 302.76458195178293 640.722631806873 629.4919696023587 580.8290792234903 691.7748295017126C520.9355266401076 754.0576894010665 350.2672916234826 568.5546843178054 269.6314807491334 481.5390985655996C188.9956698747842 394.52351281339384 177.68492269123055 350.4841181825168 193.77718702661406 274.1000178911256C209.86945136199762 197.71591759973433 271.17781911673313 133.96180192575986 346.87434955897413 114.89541716692167C422.5708800012151 95.82903240808349 508.3799644692624 62.39816014562018 557.1205331493702 182.5813710487016C605.8611018294779 302.76458195178293 640.722631806873 629.4919696023587 580.8290792234903 691.7748295017126 "></path><path d="M547.8781497440418 195.3707290907587C593.7516261488491 308.48433935248227 626.5624778922797 615.9924689059653 570.1920754608609 674.6116311641807C513.8216730294419 733.230793422396 353.1927459549713 558.639729814621 277.3002180732308 476.74270793019207C201.40769019149036 394.84568604576305 190.76228107755753 353.3968440402318 205.9079416285067 281.5059261189224C221.05360217945594 209.615008197613 278.7555953603835 149.6111346221076 349.9993887177867 131.66630190790698C421.24318207519 113.72146919370635 502.0046733392346 82.257118829035 547.8781497440418 195.3707290907587C593.7516261488491 308.48433935248227 626.5624778922797 615.9924689059653 570.1920754608609 674.6116311641807 "></path><path d="M538.6357663387136 208.16005661523764C581.6421504682204 314.2040662356036 612.4023239776866 602.4929376919939 559.5550716982314 657.4484023090708C506.7078194187761 712.4038669261478 356.1182002864599 548.7247447938587 284.9689553973282 471.9462867772065C213.81971050819652 395.16782876055436 203.8396394638845 356.30953938036873 218.03869623039935 288.91180382914115C232.23775299691425 221.51406827791357 286.3333716040338 165.2604368008773 353.1244278765994 148.43715613131417C419.91548414916497 131.61387546175104 495.6293822092068 102.11604699487168 538.6357663387136 208.16005661523764C581.6421504682204 314.2040662356036 612.4023239776866 602.4929376919939 559.5550716982314 657.4484023090708 "></path><path d="M529.3933829333853 220.94938413971659C569.5326747875916 319.9237931187248 598.2421700630935 588.9934064780224 548.9180679356018 640.2851734539609C499.5939658081103 691.5769404298993 359.0436546179485 538.8097597730962 292.6376927214256 467.14986562422087C226.23173082490268 395.48997147534544 216.91699785021143 359.22223472050564 230.169450832292 296.3176815393598C243.42190381437257 233.41312835821407 293.91114784768416 180.90973897964693 356.24946703541207 165.20801035472135C418.5877862231399 149.50628172979577 489.2540910791788 121.97497516070837 529.3933829333853 220.94938413971659C569.5326747875916 319.9237931187248 598.2421700630935 588.9934064780224 548.9180679356018 640.2851734539609 "></path><path d="M520.1509995280569 233.73871166419553C557.4231991069629 325.643520001846 584.0820161485003 575.493875264051 538.2810641729724 623.1219445988509C492.48011219744444 670.750013933651 361.9691089494371 528.8947747523337 300.306430045523 462.3534444712352C238.64375114160885 395.81211419013664 229.9943562365384 362.13493006064243 242.30020543418465 303.72355924957856C254.6060546318309 245.31218843851468 301.4889240913345 196.55904115841656 359.3745061942247 181.97886457812854C417.26008829711486 167.3986879978405 482.878799949151 141.83390332654506 520.1509995280569 233.73871166419553C557.4231991069629 325.643520001846 584.0820161485003 575.493875264051 538.2810641729724 623.1219445988509 "></path><path d="M510.9086313815178 246.52803918867448C545.3137386851232 331.3632468849672 569.9218774926961 561.9943440500795 527.644075669132 605.9587157437411C485.3662738455678 649.9230874374026 364.89457853971476 518.9797897315713 307.9751826284094 457.55702331824955C251.05578671710407 396.13425690492784 243.07172988165445 365.04762540077934 254.43097529486636 311.12943695979726C265.79022070807827 257.2112485188152 309.06671559377395 212.2083433371862 362.4995606118264 198.74971880153572C415.9324056298789 185.2910942658852 476.5035240779123 161.69283149238174 510.9086313815178 246.52803918867448C545.3137386851232 331.3632468849672 569.9218774926961 561.9943440500795 527.644075669132 605.9587157437411 "></path><path d="M501.66623271740036 259.31736671315343C533.2042477457054 337.08297376808844 555.7617083193139 548.4948128361079 517.0070566477134 588.7954868886311C478.25240497611287 629.0961609411542 367.8200176124143 509.06480471080886 315.6439046937178 452.7606021652639C263.46779177502117 396.4563996197189 256.14907300919236 367.96032074091625 266.56171463796994 318.53531467001596C276.9743562667475 269.1103085991158 316.64447657863525 227.85764551595582 365.62458451185 215.5205730249429C414.60469244506476 203.18350053392993 470.12821768909544 181.55175965821843 501.66623271740036 259.31736671315343C533.2042477457054 337.08297376808844 555.7617083193139 548.4948128361079 517.0070566477134 588.7954868886311 "></path><path d="M492.42386457086116 272.10670949642144C521.0947873238656 342.8027159099987 541.6015696635098 534.9952968809256 506.370068143873 571.6322732923102C471.1385666242361 608.2692497036949 370.745487202692 499.1498349488354 323.3126572766042 447.9641962710673C275.87982735051645 396.7785575932992 269.2264466543084 370.8730313398421 278.69248449865165 325.9412076390238C288.1585223429949 281.00938393820536 324.2222680810746 243.50696295351452 368.7496389294517 232.29144250713915C413.27700977782877 221.07592206076373 463.7529418178566 201.41070308284412 492.42386457086116 272.10670949642144C521.0947873238656 342.8027159099987 541.6015696635098 534.9952968809256 506.370068143873 571.6322732923102 "></path><path d="M483.18145064795476 284.89602176211133C508.98528112565873 348.5224275343309 527.4413852313385 521.4957504081651 495.73303386366536 554.4690291784113C464.02468249599224 587.4423079486573 373.6709110166025 489.23483466928394 330.9813640831235 443.1677598592926C288.2918171496445 397.1006850493013 282.30377452305726 373.78571142118994 290.8232085829662 333.3470700904534C299.34264264287515 292.90842875971686 331.80001380714685 259.15624987349514 371.8746475706862 249.06228147175727C411.94928133422553 238.9683130700194 457.37762017025057 221.26961598989175 483.18145064795476 284.89602176211133C508.98528112565873 348.5224275343309 527.4413852313385 521.4957504081651 495.73303386366536 554.4690291784113 "></path><path d="M473.9390977602045 297.68536454537934C496.8758359626081 354.24216967624113 513.2812618343235 507.99623445298266 485.09606061861405 537.3058155820904C456.9108594029045 566.615396711198 376.59639586566925 479.3198649073105 338.650131924799 438.371353965096C300.7038679839288 397.4228430228815 295.38116342696236 376.6984220201159 302.95399370243695 340.7529630594612C310.5268239779116 304.8075040988065 339.37782056837534 274.80556731105384 374.99971724707694 265.83315095395346C410.6216139257786 256.86073459685315 451.0023595578009 241.1285594145175 473.9390977602045 297.68536454537934C496.8758359626081 354.24216967624113 513.2812618343235 507.99623445298266 485.09606061861405 537.3058155820904 "></path><path d="M464.6966838372981 310.4746920698583C484.76632976440123 359.9618965593624 499.1210774021522 494.49670323901114 474.4590263384064 520.1425867269804C449.7969752746606 545.7884702149497 379.5218196795797 469.4048798865481 346.31883873131824 433.57493281211043C313.1158577830568 397.7449857376727 308.4584912957112 379.6111173602528 315.08471778675147 348.1588407696799C321.7109442777918 316.70656417910703 346.9555662944476 290.45486948982347 378.1247258883115 282.60400517736065C409.2938854821754 274.7531408648979 444.6270379101949 260.9874875803542 464.6966838372981 310.4746920698583C484.76632976440123 359.9618965593624 499.1210774021522 494.49670323901114 474.4590263384064 520.1425867269804 "></path><path d="M455.4542851731808 323.26401959433724C472.6568388249834 365.6816234424836 484.96090822877 480.99717202503973 463.8220073169879 502.97935787187055C442.68310640520576 524.9615437187013 382.44725875227925 459.4898948657856 353.9875607966266 428.7785116591248C325.5278628409739 398.0671284524639 321.5358344232491 382.52381270038967 327.21545712985505 355.56471847989866C332.89507983646104 328.6056242594076 354.5333272793088 306.1041716685931 381.24974978833507 299.37485940076783C407.9661722973613 292.6455471329426 438.251731521378 280.84641574619087 455.4542851731808 323.26401959433724C472.6568388249834 365.6816234424836 484.96090822877 480.99717202503973 463.8220073169879 502.97935787187055 "></path><path d="M446.2119322854306 336.0533471188162C460.5473936619328 371.4013503256048 470.8007848317549 467.4976408110683 453.1850340719365 485.81612901676056C435.56928331211805 504.1346172224529 385.372743601346 449.57490984502317 361.6563286383021 423.9820905061391C337.9399136752582 398.38927116725506 334.6132233271542 385.4365080405265 339.3462422493258 362.97059619011736C344.0792611714975 340.50468433970815 362.1111340405373 321.7534738473627 384.3748194647259 316.145713624175C406.6385048889144 310.5379534009873 431.8764709089283 300.70534391202756 446.2119322854306 336.0533471188162C460.5473936619328 371.4013503256048 470.8007848317549 467.4976408110683 453.1850340719365 485.81612901676056 "></path><path d="M436.96954888010225 348.84267464329514C448.43791798130405 377.12107720872604 456.64063091716173 453.9981095970968 442.548030309307 468.6529001616507C428.45542970145226 483.30769072620444 388.2981979328346 439.6599248242607 369.3250659623995 419.18566935315346C350.35193399196436 398.71141388204626 347.69058171348115 388.3492033806634 351.4769968512185 370.37647390033607C355.2634119889558 352.4037444200087 369.68891028418767 337.40277602613236 387.4998586235385 332.9165678475822C405.3108069628893 328.43035966903204 425.50117977890045 320.56427207786425 436.96954888010225 348.84267464329514C448.43791798130405 377.12107720872604 456.64063091716173 453.9981095970968 442.548030309307 468.6529001616507 "></path><path d="M427.7271502159849 361.6320021677741C436.32842704188624 382.8408040918473 442.48046174377953 440.49857838312533 431.91101128788847 451.48967130654074C421.3415608319974 462.4807642299561 391.22363700553416 429.74493980349826 376.9937880277078 414.38924820016786C362.7639390498815 399.0335565968374 360.76792484101907 391.26189872080033 363.60773619432206 377.78235161055477C366.44754754762505 364.30280450030926 377.26667126904897 353.05207820490205 390.62488252356206 349.6874220709894C403.98309377807516 346.3227659370768 419.12587339008354 340.4232002437009 427.7271502159849 361.6320021677741C436.32842704188624 382.8408040918473 442.48046174377953 440.49857838312533 431.91101128788847 451.48967130654074 "></path><path d="M418.4847668106566 374.4213449510421C424.2189513612575 388.5605462337576 428.32030782918633 426.99906242794293 421.274007525259 434.32645771021987C414.22770722133157 441.65385299249675 394.14909133702275 419.8299700415249 384.66252535180524 409.59284230597126C375.1759593665877 399.35571457041766 373.84528322734604 394.17460931972624 375.7384907962147 385.1882445795626C377.63169836508337 376.2018798393989 384.8444475126993 368.70139564246074 393.7499216823747 366.45829155318563C402.6553958520501 364.2151874639106 412.7505822600557 360.2821436683266 418.4847668106566 374.4213449510421C424.2189513612575 388.5605462337576 428.32030782918633 426.99906242794293 421.274007525259 434.32645771021987 "></path><path d="M409.24238340532827 387.21067247552105C412.10947568062875 394.2802731168788 414.1601539145932 413.49953121397147 410.6370037626295 417.16322885510994C407.1138536106658 420.8269264962484 397.0745456685114 409.91498502076246 392.3312626759026 404.79642115298566C387.58797968329384 399.6778572852088 386.922641613673 397.0873046598631 387.86924539810735 392.5941222897813C388.8158491825417 388.10093991969944 392.42222375634964 384.35069782123037 396.8749608411874 383.2291457765928C401.32769792602505 382.10759373195526 406.37529113002785 380.1410718341633 409.24238340532827 387.21067247552105C412.10947568062875 394.2802731168788 414.1601539145932 413.49953121397147 410.6370037626295 417.16322885510994 "></path></g></svg>