<svg xmlns="http://www.w3.org/2000/svg" version="1.1" xmlns:xlink="http://www.w3.org/1999/xlink" xmlns:svgjs="http://svgjs.dev/svgjs" viewBox="0 0 800 800"><defs><linearGradient x1="50%" y1="0%" x2="50%" y2="100%" id="uundulate-grad"><stop stop-color="hsl(105, 69%, 40%)" stop-opacity="1" offset="45%"></stop><stop stop-color="hsl(105, 69%, 60%)" stop-opacity="1" offset="100%"></stop></linearGradient></defs><g stroke-width="1" stroke="url(#uundulate-grad)" fill="none"><path d="M689.0547670722602 110.59607511803353C739.3391974015251 250.4020857390709 752.0238356637097 685.7932224780211 625.5915768686989 763.8260903946857C499.15931807368815 841.8589583113508 132.46435518547327 624.9598517390629 82.17992485620834 485.1538411180254C31.895494526943423 345.3478304969881 257.794052493216 170.79010733037228 384.2263112882267 92.75723941370734C510.65857008323746 14.724371497042455 638.7703367429953 -29.209935503003862 689.0547670722602 110.59607511803353C739.3391974015251 250.4020857390709 752.0238356637097 685.7932224780211 625.5915768686989 763.8260903946857 "></path><path d="M677.9372772047724 121.72700586957853C726.2876909829117 256.1558622359606 738.4844585427046 674.8011860234126 616.9149789321174 749.8327897894364C495.34549932153004 824.8643935554605 142.75418885209268 616.3075603128759 94.40377507395334 481.87870394649383C46.053361295814 347.44984758011174 263.2635131864606 179.60588299682735 384.83299279704795 104.57427923080337C506.4024724076353 29.542675464779393 629.586863426633 -12.701850496803559 677.9372772047724 121.72700586957853C726.2876909829117 256.1558622359606 738.4844585427046 674.8011860234126 616.9149789321174 749.8327897894364 "></path><path d="M666.8197873372847 132.85793662112349C713.2361845642985 261.90963873285034 724.9450814216996 663.8091495688042 608.2383809955357 735.8394891841872C491.53168056937193 807.8698287995703 153.0440225187121 607.655268886689 106.62762529169834 478.60356677496225C60.211228064684576 349.5518646632354 268.73297387970536 188.42165866328236 385.4396743058692 116.39131904789934C502.1463747320329 44.36097943251633 620.4033901102708 3.8062345093966883 666.8197873372847 132.85793662112349C713.2361845642985 261.90963873285034 724.9450814216996 663.8091495688042 608.2383809955357 735.8394891841872 "></path><path d="M655.7022974697968 143.9888673726685C700.1846781456851 267.66341522974005 711.4057043006945 652.8171131141959 599.5617830589542 721.8461885789379C487.71786181721393 790.8752640436799 163.3338561853315 599.002977460502 118.85147550944333 475.32842960343055C74.3690948335551 351.65388174635905 274.2024345729501 197.23743432973743 386.0463558146904 128.20835886499538C497.8902770564307 59.17928340025327 611.2199167939086 20.314319515596935 655.7022974697968 143.9888673726685C700.1846781456851 267.66341522974005 711.4057043006945 652.8171131141959 599.5617830589542 721.8461885789379 "></path><path d="M644.5848686374653 155.11976760663538C687.133232762228 273.41716120905164 697.8663882148458 641.8250461420093 590.885246157529 707.8528574561104C483.9041041002122 773.8806687702117 173.62375088710718 590.3506555167371 131.07538676234458 472.05326191432084C88.52702263758192 353.7558683119046 279.671956301351 206.0531794786143 386.6530983586679 140.02536816451322C493.63424041598466 73.99755685041214 602.0365045127027 36.822374004219114 644.5848686374653 155.11976760663538C687.133232762228 273.41716120905164 697.8663882148458 641.8250461420093 590.885246157529 707.8528574561104 "></path><path d="M633.4673177348213 166.25069835818033C674.0816653084584 279.17093770594124 684.3269500586845 630.8330096874009 582.2085871857912 693.859556850861C480.0902243128978 756.8861040143211 183.91352351857034 581.6983640905501 143.29917594493332 468.77812474278926C102.68482837129625 355.85788539502823 285.14135595943947 214.86895514506932 387.25971883233274 151.8424079816092C489.3780817052261 88.81586081814908 592.8529701611842 53.33045901041936 633.4673177348213 166.25069835818033C674.0816653084584 279.17093770594124 684.3269500586845 630.8330096874009 582.2085871857912 693.859556850861 "></path><path d="M622.3498278673335 177.3815985921472C661.030158889845 284.92468368525283 670.7875729376793 619.8409427152144 573.5319892492096 679.8662257280337C476.2764055607397 739.8915087408528 194.20335718518976 573.0460421467851 155.52302616267832 465.50295705367944C116.84269514016682 357.95987196057376 290.6108166526842 223.6847002939462 387.8664003411541 163.65941728112705C485.1219840296237 103.63413426830789 583.6694968448221 69.83851349904154 622.3498278673335 177.3815985921472C661.030158889845 284.92468368525283 670.7875729376793 619.8409427152144 573.5319892492096 679.8662257280337 "></path><path d="M611.2323379998458 188.51252934369217C647.9786524712317 290.67846018214254 657.2481958166743 608.8489062606061 564.855391312628 665.8729251227843C472.4625868085816 722.8969439849625 204.49319085180917 564.3937507205982 167.74687638042332 462.22781988214774C131.0005619090374 360.0618890436974 296.08027734592883 232.50047596040127 388.4730818499752 175.47645709822302C480.86588635402154 118.45243823604483 574.4860235284599 86.34659850524179 611.2323379998458 188.51252934369217C647.9786524712317 290.67846018214254 657.2481958166743 608.8489062606061 564.855391312628 665.8729251227843 "></path><path d="M600.114848132358 199.64346009523717C634.9271460526184 296.43223667903226 643.7088186956692 597.8568698059976 556.1787933760463 651.8796245175349C468.6487680564235 705.9023792290723 214.78302451842865 555.7414592944112 179.97072659816826 458.9526827106163C145.15842867790798 362.1639061268211 301.5497380391736 241.31625162685629 389.0797633587964 187.29349691531905C476.60978867841925 133.27074220378177 565.3025502120977 102.85468351144203 600.114848132358 199.64346009523717C634.9271460526184 296.43223667903226 643.7088186956692 597.8568698059976 556.1787933760463 651.8796245175349 "></path><path d="M588.9973582648702 210.774360329204C621.875639634005 302.18598265834385 630.1694415746642 586.8648028338112 547.5021954394648 637.8862933947075C464.83494930426536 688.9077839556038 225.07285818504806 547.0891373506463 192.19457681591325 455.67751502150645C159.3162954467785 364.2658926923666 307.01919873241826 250.13199677573323 389.68644486761764 199.1105062148369C472.35369100281696 148.08901565394063 556.1190768957355 119.36273800006421 588.9973582648702 210.774360329204C621.875639634005 302.18598265834385 630.1694415746642 586.8648028338112 547.5021954394648 637.8862933947075 "></path><path d="M577.8798989149607 221.905291080749C608.8241637329697 307.93975915523356 616.6300949712372 575.8727663792029 538.8256280204614 623.892992789458C461.0211610696855 671.9132191997135 235.3627223692456 538.4368459244594 204.41845755123637 452.40237784997476C173.4741927332272 366.36790977549026 312.48868994324107 258.94777244218824 390.2931568940169 210.92754603193293C468.0976238447928 162.90731962167757 546.9356340969514 135.87082300626446 577.8798989149607 221.905291080749C608.8241637329697 307.93975915523356 616.6300949712372 575.8727663792029 538.8256280204614 623.892992789458 "></path><path d="M566.7623785298947 233.0361913147159C595.7726267967782 313.69350513454515 603.090687332654 564.8806994070163 530.1489995663017 609.8996616666307C457.20731179994937 654.9186239262451 245.6525255182869 529.7845239806943 216.64227725140324 449.12721016086505C187.63202898451965 368.4698963410358 317.9581201189077 267.7635175910651 390.8998078852601 222.74455533145078C463.8414956516124 177.72559307183639 537.7521302630112 152.37887749488658 566.7623785298947 233.0361913147159C595.7726267967782 313.69350513454515 603.090687332654 564.8806994070163 530.1489995663017 609.8996616666307 "></path><path d="M555.644919179985 244.16715258383897C582.721150895743 319.447312149013 589.5513407292271 553.888693469986 521.4724321472982 595.9063915789595C453.3935235653694 637.9240896879329 255.94238970248443 521.1322630720856 228.86615798672636 445.8521035069116C201.78992627096835 370.5719439417376 323.4276113297305 276.5793237750983 391.5065199116593 234.56162566612488C459.5854284935882 192.54392755715145 528.568687464227 168.886993018665 555.644919179985 244.16715258383897C582.721150895743 319.447312149013 589.5513407292271 553.888693469986 521.4724321472982 595.9063915789595 "></path><path d="M544.5273987949192 255.29805281780585C569.6696139595516 325.2010581283245 576.0119330906439 542.8966264977996 512.7958036931385 581.9130604561319C449.57967429563314 620.9294944144644 266.2321928515257 512.4799411283204 241.08997768689323 442.57693581780177C215.94776252226075 372.6739305072831 328.89704150539706 285.3950689239752 392.1131709029024 246.37863496564273C455.3293003004078 207.36220100731026 519.3851836302867 185.39504750728713 544.5273987949192 255.29805281780585C569.6696139595516 325.2010581283245 576.0119330906439 542.8966264977996 512.7958036931385 581.9130604561319 "></path><path d="M533.4098936686423 266.4289835693508C556.6180922821493 330.95483462521423 562.4725407108498 531.9045900431911 504.11919049776793 567.9197598508827C445.76584028468596 603.9349296585742 276.5220112593561 503.8276497021336 253.31381264584917 439.3017986462702C230.10561403234226 374.77594759040676 334.3664869398527 294.21084459043027 392.7198371529346 258.19567478273876C451.07318736601644 222.18050497504726 510.20169505513536 201.90313251348744 533.4098936686423 266.4289835693508C556.6180922821493 330.95483462521423 562.4725407108498 531.9045900431911 504.11919049776793 567.9197598508827 "></path><path d="M522.2924038011545 277.5598838033177C543.5665858635359 336.7085806045258 548.9331635898448 520.9125230710047 495.4425925611863 553.9264287280553C441.95202153252797 586.9403343851059 286.8118449259755 495.17532775836855 265.53766286359416 436.0266309571605C244.26348080121284 376.8779341559523 339.83594763309736 303.02658973930716 393.3265186617558 270.0126840822566C446.81708969041415 236.99877842520607 501.01822173877326 218.41118700210956 522.2924038011545 277.5598838033177C543.5665858635359 336.7085806045258 548.9331635898448 520.9125230710047 495.4425925611863 553.9264287280553 "></path><path d="M511.17491393366674 288.69081455486264C530.5150794449225 342.4623571014155 535.3937864688396 509.92048661639626 486.7659946246048 539.9331281228059C438.13820278036985 569.9457696292154 297.1016785925949 486.5230363321816 277.76151308133916 432.7514937856288C258.4213475700834 378.97995123907594 345.3054083263421 311.84236540576217 393.93320017057704 281.8297238993526C442.56099201481186 251.817082392943 491.83474842241105 234.9192720083098 511.17491393366674 288.69081455486264C530.5150794449225 342.4623571014155 535.3937864688396 509.92048661639626 486.7659946246048 539.9331281228059 "></path><path d="M500.057424066179 299.8217147888295C517.4635730263092 348.21610308072707 521.8544093478346 498.9284196442097 478.08939668802316 525.9397969999784C434.32438402821174 552.9511743557471 307.3915122592143 477.87071438841656 289.98536329908416 429.4763260965191C272.579214338954 381.0819378046215 350.7748690195868 320.6581105546391 394.5398816793982 293.64673319887044C438.3048943392096 266.6353558431018 482.65127510604884 251.42732649693198 500.057424066179 299.8217147888295C517.4635730263092 348.21610308072707 521.8544093478346 498.9284196442097 478.08939668802316 525.9397969999784 "></path><path d="M488.9399341986913 310.95264554037453C504.4120666076958 353.9698795776168 508.31503222682954 487.93638318960143 469.41279875144164 511.946496394729C430.5105652760537 535.9566095998567 317.68134592583374 469.2184229622296 302.20921351682915 426.2011889249874C286.73708110782457 383.18395488774513 356.2443297128315 329.4738862210941 395.1465631882194 305.46377301596647C434.04879666360733 281.45365981083876 473.46780178968663 267.93541150313223 488.9399341986913 310.95264554037453C504.4120666076958 353.9698795776168 508.31503222682954 487.93638318960143 469.41279875144164 511.946496394729 "></path><path d="M477.8224443312034 322.08354577434136C491.36056018908243 359.72362555692837 494.7756551058245 476.9443162174149 460.73620081486 497.95316527190164C426.6967465238956 518.9620143263883 327.97117959245315 460.5661010184647 314.43306373457415 422.92602123587767C300.8949478766951 385.28594145329066 361.71379040607616 338.289631369971 395.7532446970406 317.2807823154843C429.79269898800504 296.2719332609976 464.2843284733244 284.44346599175435 477.8224443312034 322.08354577434136C491.36056018908243 359.72362555692837 494.7756551058245 476.9443162174149 460.73620081486 497.95316527190164 "></path><path d="M466.7049544637157 333.21447652588637C478.3090537704692 365.477402053818 481.2362779848194 465.9522797628065 452.0596028782785 483.95986466665227C422.8829277717375 501.96744957049805 338.26101325907257 451.91380959227774 326.6569139523191 419.65088406434603C315.05281464556566 387.3879585364143 367.18325109932084 347.1054070364261 396.3599262058618 329.0978221325803C425.53660131240275 311.09023722873457 455.1008551569622 300.95155099795466 466.7049544637157 333.21447652588637C478.3090537704692 365.477402053818 481.2362779848194 465.9522797628065 452.0596028782785 483.95986466665227 "></path><path d="M455.5874645962279 344.3454072774313C465.2575473518558 371.23117855070774 467.69690086381434 454.96024330819813 443.3830049416969 469.96656406140295C419.06910901957946 484.9728848146077 348.550846925692 443.2615181660908 338.8807641700641 416.3757468928144C329.21068141443624 389.489975619538 372.6527117925656 355.9211827028811 396.96660771468305 340.9148619496763C421.28050363680046 325.9085411964715 445.91738184060006 317.4596360041549 455.5874645962279 344.3454072774313C465.2575473518558 371.23117855070774 467.69690086381434 454.96024330819813 443.3830049416969 469.96656406140295 "></path><path d="M444.4699594699511 355.47632277018727C452.2060256744534 376.9849397888084 454.15750848402024 443.9681915948007 434.7063917463263 455.9732481973645C415.25527500863234 467.97830479992837 358.84066533352234 434.6092114811148 351.10459912902 413.1005944624937C343.36853292451775 391.59197744387257 378.1221572270212 364.7369431105471 397.57327396471516 352.73188650798323C417.02439070240916 340.7268299054194 436.7338932654488 333.96770575156614 444.4699594699511 355.47632277018727C452.2060256744534 376.9849397888084 454.15750848402024 443.9681915948007 434.7063917463263 455.9732481973645 "></path><path d="M433.3524696024633 366.60723826294316C439.15451925584006 382.73870102690904 440.6181313630152 432.97613988140324 426.0297938097447 441.97993233332613C411.4414562564742 450.983724785249 369.13049900014175 425.9569047961389 363.328449346765 409.825442032173C357.5263996933883 393.69397926820716 383.5916179202659 373.55270351821304 398.1799554735364 364.54891106629015C412.7682930268069 355.54511861436725 427.5504199490866 350.4757754989773 433.3524696024633 366.60723826294316C439.15451925584006 382.73870102690904 440.6181313630152 432.97613988140324 426.0297938097447 441.97993233332613 "></path><path d="M422.2349797349755 377.7381537556991C426.1030128372267 388.49246226500964 427.0787542420101 421.9840881680058 417.35319587316314 427.98661646928775C407.62763750431617 433.9891447705697 379.42033266676117 417.3045981111629 375.55229956451 406.55028960185234C371.68426646225885 395.79598109254175 389.06107861351063 382.368463925879 398.7866369823576 376.36593562459706C408.5121953512046 370.3634073233152 418.3669466327244 366.9838452463885 422.2349797349755 377.7381537556991C426.1030128372267 388.49246226500964 427.0787542420101 421.9840881680058 417.35319587316314 427.98661646928775 "></path><path d="M411.1174898674878 388.86908450724405C413.05150641861337 394.24623876189935 413.53937712100503 410.9920517133974 408.6765979365816 413.9933158640384C403.81381875215806 416.99458001467934 389.7101663333806 408.652306684976 387.776149782255 403.2751524303207C385.8421332311294 397.8979981756654 394.5305393067553 391.18423959233405 399.3933184911788 388.1829754416931C404.2560976756023 385.1817112910521 409.1834733163622 383.4919302525888 411.1174898674878 388.86908450724405C413.05150641861337 394.24623876189935 413.53937712100503 410.9920517133974 408.6765979365816 413.9933158640384 "></path></g></svg>